<?xml version="1.0" standalone="no"?>
<!DOCTYPE svg PUBLIC "-//W3C//DTD SVG 1.1//EN" "http://www.w3.org/Graphics/SVG/1.1/DTD/svg11.dtd" >
<!--
2013-9-30: Created.
-->
<svg>
<metadata>
Created by iconfont
</metadata>
<defs>

<font id="iconfont" horiz-adv-x="1024" >
  <font-face
    font-family="iconfont"
    font-weight="500"
    font-stretch="normal"
    units-per-em="1024"
    ascent="896"
    descent="-128"
  />
    <missing-glyph />
    
    <glyph glyph-name="mobile" unicode="&#58944;" d="M900.135587-8.575980999999956M726.087197-97.05271200000004l-428.084081 0c-25.347876 0-45.894106 22.277231-45.894106 49.762517L252.109011 815.275143c0 27.485286 20.54623 49.747464 45.894106 49.747464l428.084081 0c25.317772 0 45.818845-22.262178 45.818845-49.747464l0-862.565339C771.906041-74.76042900000004 751.404968-97.05271200000004 726.087197-97.05271200000004zM512.180626-47.29019600000004c16.888549 0 30.586036 14.856504 30.586036 33.190063 0 18.303454-13.697486 33.159959-30.586036 33.159959-16.918654 0-30.601088-14.856504-30.601088-33.159959C481.579538-32.43369099999995 495.277025-47.29019600000004 512.180626-47.29019600000004zM726.087197 765.527679l-15.277966 0L313.311186 765.527679l-15.30807 0 0-696.720388 15.30807 0 397.513097 0 15.277966 0L726.102249 765.527679z"  horiz-adv-x="1024" />

    
    <glyph glyph-name="yingyong" unicode="&#58882;" d="M864.2785 565.2193l2.4535 6.3795-20.7483 18.6757 0 0-118.8444 106.9568L587.5466 822.8659l-5.7262-2.5354c-13.4134 5.8614-28.0269 9.7055-40.8678 9.7055h-335.02208c-30.7814 0-55.8367-25.0563-55.8367-55.8367v-781.7185280000001c0-30.7814 25.0563-55.8367 55.8367-55.8367h614.207488c30.7814 0 55.8367 25.0563 55.8367 55.8367V522.933248C875.9747 536.5934 871.339 551.7251 864.2785 565.2193zM596.7882 739.4386L775.3144 578.7699H596.7882239999999V739.438592zM820.054-7.518199999999979H205.93049599999998V774.20032h335.02208v-223.347712l27.9183-27.9194h251.26707199999998L820.054-7.518199999999979z"  horiz-adv-x="1024" />

    
    <glyph glyph-name="fuzhi" unicode="&#58987;" d="M89.087-96c-31.478 0-57.087 25.591-57.087 57.062l0 725.015c0 31.478 25.612 57.09 57.087 57.09l330.922 0 239.715-239.713 0-542.364c0-31.476-25.614-57.09-57.09-57.09l-513.546 0.001zM85.744-42.292l520.233 0 0 490.04-241.673 0 0 241.672-278.559 0 0-731.711zM418.019 501.492l167.658 0-167.658 167.655 0-167.655zM726.82 24.809l0 53.742 211.466 0 0 490.03-241.676 0 0 241.672-332.208 0c1.734 29.932 26.62 53.747 56.962 53.747l330.917 0 239.747-239.715 0-542.395c0-31.48-25.61-57.081-57.09-57.081l-208.118 0zM750.328 622.326l167.62 0-167.62 167.664 0-167.664z"  horiz-adv-x="1025" />

    
    <glyph glyph-name="jiance" unicode="&#59078;" d="M745.429333 240.341333c1.173333-0.746667 2.325333-1.578667 3.413334-2.496l114.410666-96a32 32 0 0 0-41.152-49.024l-114.389333 96a32 32 0 0 0-6.208 6.976A297.429333 297.429333 0 0 0 512 128c-164.949333 0-298.666667 133.717333-298.666667 298.666667S347.050667 725.333333 512 725.333333s298.666667-133.717333 298.666667-298.666666a297.386667 297.386667 0 0 0-65.237334-186.325334zM512 192c129.6 0 234.666667 105.066667 234.666667 234.666667s-105.066667 234.666667-234.666667 234.666666-234.666667-105.066667-234.666667-234.666666 105.066667-234.666667 234.666667-234.666667zM454.762667 439.658667l-77.013334-77.013334a21.333333 21.333333 0 0 0-30.165333 30.165334l90.517333 90.517333a21.333333 21.333333 0 0 0 31.701334 1.621333l77.162666-77.184 97.984 97.984a21.333333 21.333333 0 0 0 30.165334-30.165333l-105.6-105.6a21.248 21.248 0 0 0-8.832-5.333333 21.333333 21.333333 0 0 0-30.549334-0.384l-75.370666 75.392z"  horiz-adv-x="1024" />

    
    <glyph glyph-name="rongqi-2" unicode="&#59039;" d="M1123.54800392 54.15266425000004H251.42237838A26.95941894 26.95941894 0 0 0 224.38571166 80.95758835000004V415.74877189c0 3.01265694 0.54073303 6.02531455 1.5449527 8.88347597L328.66999816 713.69284088A26.95941894 26.95941894 0 0 0 354.16171286 731.61428833h666.80145211c11.35539986 0 21.55208588-7.10678131 25.33721985-17.76695258l102.7393338-284.50298273c1.00421898-2.93540985 1.5449527-5.94806678 1.5449527-9.03797149v-339.34879319a26.95941894 26.95941894 0 0 0-27.0366674-26.80492409zM278.45904509 107.83975953000004h818.20678764V415.67152412L1001.96025077 677.92719238h-628.7956237L278.45904509 411.11391449v-303.35140207zM532.75820929 384.30899041H260.3831021c-14.90879051 0-27.03666671 6.56604759-27.03666671 25.80070509 0 19.08016197 12.12787621 34.76142883 27.03666671 34.76142883h272.37510719c14.90879051 0 27.03666671-15.60401909 27.03666673-34.76142883 0-19.23465751-12.12787621-34.76142883-27.03666673-34.76142883v8.96072374z m568.0789949 60.56213392c14.90879051 0 27.03666671-15.60401909 27.03666672-34.76142883 0-19.23465751-12.12787621-25.8007051-27.03666672-25.80070509l-232.74707831-0.07724778C852.09986862 297.55991386000005 776.55169707 230.97246537 688.64390532 230.97246537c-96.55952437 0-178.44200156 80.41477226-182.61337233 179.21447791l-0.15449555 7.8020092a26.95941894 26.95941894 0 0 0 53.99608634 0l0.07724777-5.79357124c3.01265694-70.21808625 60.71662881-127.61306769 128.69453378-127.61306771 68.13240052 0 125.91362015 57.62672408 128.61728668 128.38554405l0.07724777 5.48458084a26.88217185 26.88217185 0 0 0 27.03666672 26.41868591h256.53934479z"  horiz-adv-x="1365" />

    
    <glyph glyph-name="mokuai_duoyuyan" unicode="&#59037;" d="M896.328125 805.09151797H274.36383905a24.46875 24.46875 0 0 1-25.9151781-25.91517892c-0.48214297-7.05133906 2.109375-19.46651797 7.05133905-24.46875a24.46875 24.46875 0 0 1 18.80357108-7.11160702h592.25223284v-590.50446405c0.60267892-13.86160702 15.91071406-24.890625 29.83258905-24.890625a25.91517892 25.91517892 0 0 1 25.9151781 24.890625V779.11607108a24.46875 24.46875 0 0 1-25.9151781 25.91517892zM116.88392892 701.37053595a24.58928595 24.58928595 0 0 1-25.91517892-25.91517892v-675.78348203a24.58928595 24.58928595 0 0 1 25.91517892-25.91517892h675.72321405a24.58928595 24.58928595 0 0 1 25.97544609 25.91517892V675.39508905a24.58928595 24.58928595 0 0 1-25.91517811 25.9754469H116.82366095z m641.73214216-675.78348203H154.06919608V644.77901797h604.546875v-619.19196405zM314.62276797 181.921875h10.18526798a28.50669608 28.50669608 0 0 1 25.9151781 15.54910702l46.52678595 114.02678595h114.20758905l46.82812501-114.1473219c10.36607107-15.54910702 20.671875-20.671875 36.22098201-15.54910701 15.609375 10.36607107 20.73214298 20.671875 15.609375 36.28125l-129.57589215 310.98214296a29.35044608 29.35044608 0 0 1-51.83035785 1e-8l-129.63616012-310.98214298a26.75892892 26.75892892 0 0 1 15.54910702-36.16071405zM454.56473202 451.5l35.97991095-88.171875H418.64508905l35.91964298 88.171875z"  horiz-adv-x="1024" />

    
    <glyph glyph-name="rizhishenji" unicode="&#58954;" d="M215.045 293.001c-17.67 0-31.995 14.321-32 31.992l-0.04 157.999c-0.004 17.673 14.319 32.004 31.992 32.008h0.009c17.67 0 31.995-14.321 32-31.992l0.04-158c0.004-17.673-14.319-32.003-31.992-32.008l-0.009 0.001zM806.075-24.57000000000005H297.601c-63.133 0-114.495 51.362-114.495 114.495l-0.019 58.766c-0.005 17.673 14.317 32.004 31.99 32.01h0.011c17.668 0 31.994-14.32 32-31.99l0.019-58.775c0-27.853 22.652-50.505 50.495-50.505h508.475c27.843 0 50.495 22.652 50.495 50.495v581.97c0 27.843-22.652 50.495-50.495 50.495H297.601c-27.843 0-50.495-22.652-50.495-50.495V653c0-17.673-14.327-32-32-32s-32 14.327-32 32v18.896c0 63.133 51.362 114.495 114.495 114.495h508.475c63.133 0 114.495-51.362 114.495-114.495v-581.971c-0.001-63.133-51.363-114.495-114.496-114.495zM722.998 544.004H448.087c-17.673 0-32 14.327-32 32s14.327 32 32 32h274.911c17.673 0 32-14.327 32-32s-14.327-32-32-32z m1-182H449.087c-17.673 0-32 14.327-32 32 0 17.673 14.327 32 32 32h274.911c17.673 0 32-14.327 32-32 0-17.673-14.327-32-32-32z m0-181H449.087c-17.673 0-32 14.327-32 32s14.327 32 32 32h274.911c17.673 0 32-14.327 32-32s-14.327-32-32-32z m-441.396 27.413H153.608c-17.673 0-32 14.327-32 32s14.327 32 32 32h128.994c17.673 0 32-14.327 32-32s-14.327-32-32-32z m-3 330H150.608c-17.673 0-32 14.327-32 32s14.327 32 32 32h128.994c17.673 0 32-14.327 32-32s-14.327-32-32-32z"  horiz-adv-x="1024" />

    
    <glyph glyph-name="hidden" unicode="&#59036;" d="M754.99706995 407.6195115l67.75945477-64.80727816c3.23333486 13.35507935 5.41232171 26.99131777 5.41232089 41.26016519 0 96.8594686-78.79496648 175.72472507-175.72472507 175.72472507-16.93986328 0-32.96595849-3.16304489-48.50002386-7.66159772l67.47829404-64.52611909a105.43483521 105.43483521 0 0 0 83.57467923-79.98989529zM701.01443439 216.07956115000002l-67.40800407 64.52611909a105.43483521 105.43483521 0 0 0-83.78554916 80.13047525l-67.68916397 64.66669821c-3.23333486-13.35507935-5.41232171-27.06160776-5.41232171-41.33045517 0-96.92975858 78.86525647-175.72472507 175.72472507-175.72472507 17.01015326 0 33.03624848 3.23333486 48.57031384 7.73188769zM286.65553303 796.11173392a35.14494534 35.14494534 0 0 1-48.64060466-50.81958985l808.3337363-773.18879095a35.07465536 35.07465536 0 0 1 49.76524182 1.124638 35.14494534 35.14494534 0 0 1-1.12463799 49.69495184l-808.33373548 773.18879096zM652.44412055 67.76789291c-185.91675953 0-368.31902426 124.69426529-455.6190674 311.87624277l-0.63260897 1.82753696-0.2811599 1.47608789c-0.07028998 0.35144907-0.35144907 0.84347891-0.35144907 1.40579792V384.77529748c0 0.77318894 0.49202902 1.61666784 0.56231899 2.46014593l0.562319 1.40579792a562.88143955 562.88143955 0 0 0 134.18339997 181.48849668L279.90770337 618.84063181A629.44596551 629.44596551 0 0 1 132.15835412 416.40574805a34.44204638 34.44204638 0 0 1-2.53043591-6.46666975 18.27537122 18.27537122 0 0 1-0.70289895-1.7572478c-1.96811692-5.55290168-1.96811692-9.34855554-1.82753696-8.43478664a167.14935847 167.14935847 0 0 1-1.75724698-12.3007305 314.61754779 314.61754779 0 0 1 1.26521795-23.19566392l4.99058185-14.97174636C228.94753274 136.58169570999996 438.27082528-4.419823879999967 652.44412055-4.419823879999967c76.68627045 0 152.59935113 19.47029919 223.10011092 52.57683765l-54.82611364 53.42031655c-53.91234558-21.86015598-110.9174469-33.80943741-168.27399729-33.80943741z m527.17417602 316.16392567a45.96958794 45.96958794 0 0 1-1.40579792 12.30073132 58.69205832 58.69205832 0 0 1-4.92029268 18.83769021C1075.94070835 627.83773746 866.75799576 770.66679401 652.44412055 770.66679401c-76.61598047 0-152.52906115-18.55653112-222.95953098-51.73335873l54.75582449-52.29567856A449.50384671 449.50384671 0 0 0 652.44412055 700.37690415c186.40878855 0 369.23279233-125.2565843 455.47848824-311.59508287l0.35144907-0.8434789c0-0.28115992 0.14057995-0.70289895 0.28115991-0.91376807 0.14057995-1.40579792 0.28115992-2.81159583 0.49202902-3.51449478l-0.42173986-2.10869686-0.14057914-0.562319c-0.14057995-0.42173904-0.35144907-0.91376889-0.42173987-1.54637788a562.81114957 562.81114957 0 0 0-133.97253003-181.27762591l50.88988066-48.64060466a625.01770267 625.01770267 0 0 1 147.18702941 201.38053575 37.04277228 37.04277228 0 0 1 3.09275491 7.59130773 30.71668167 30.71668167 0 0 1 2.67101588 11.10580253c0.63260898 3.30362485 1.686957 8.43478665 1.68695781 14.55000732z"  horiz-adv-x="1364" />

    
    <glyph glyph-name="homelock" unicode="&#59060;" d="M905.767385 485.376c6.931692-0.078769 12.603077-5.828923 12.603077-12.918154v-523.027692a12.996923 12.996923 0 0 0-12.603077-12.839385H115.712a12.996923 12.996923 0 0 0-12.603077 12.918154V472.457846a12.996923 12.996923 0 0 0 12.603077 12.918154H905.846154m0 64.590769H115.712a77.036308 77.036308 0 0 1-76.012308-77.508923v-523.027692A77.036308 77.036308 0 0 1 115.712-128H905.846154a77.036308 77.036308 0 0 1 76.091077 77.508923V472.457846a77.036308 77.036308 0 0 1-76.091077 77.508923zM240.009846 504.753231a31.980308 31.980308 0 0 0-31.665231 32.295384v79.556923c0 2.914462 2.205538 70.892308 40.01477 139.027693C283.963077 819.672615 357.927385 896 508.849231 896c17.486769 0 31.665231-14.493538 31.665231-32.295385 0-17.801846-14.178462-32.295385-31.665231-32.295384-95.704615 0-164.391385-35.446154-204.169846-105.550769a269.942154 269.942154 0 0 1-32.925539-110.67077v-78.139077c0-17.880615-14.178462-32.295385-31.744-32.295384zM777.688615 504.753231a31.980308 31.980308 0 0 0-31.744 32.295384v78.139077a270.414769 270.414769 0 0 1-32.925538 110.67077C673.161846 795.963077 604.475077 831.409231 508.849231 831.409231a31.980308 31.980308 0 0 0-31.665231 32.295384c0 17.801846 14.178462 32.295385 31.665231 32.295385 150.921846 0 224.886154-76.327385 260.411077-140.366769 37.809231-68.214154 40.014769-136.113231 40.093538-139.027693v-79.556923c0-17.880615-14.178462-32.295385-31.665231-32.295384zM469.464615 38.675692000000026c0-30.641231 28.672-55.453538 64.039385-55.453538 35.288615 0 63.960615 24.812308 63.960615 55.453538 0 30.562462-28.672 55.374769-63.960615 55.37477-35.446154 0-64.039385-24.812308-64.039385-55.37477zM272.305231 212.913231c51.436308 83.810462 152.103385 136.270769 261.828923 136.585846 114.451692 0 212.676923-56.32 262.774154-138.082462l75.618461 33.476923C808.408615 350.601846 681.747692 423.384615 534.055385 423.384615 387.544615 423.384615 261.592615 351.468308 196.923077 246.94153800000004l75.382154-34.028307zM534.055385 169.74769200000003c48.128 0 89.560615-23.315692 111.379692-57.26523l75.618461 33.476923c-36.706462 59.864615-108.622769 97.437538-186.998153 97.673846-77.981538-0.236308-149.582769-37.415385-186.525539-96.807385l75.382154-33.949538c22.055385 33.713231 63.251692 56.871385 111.143385 56.871384z"  horiz-adv-x="1024" />

    
    <glyph glyph-name="homequeue" unicode="&#59061;" d="M512 809.557333A71.082667 71.082667 0 1 1 512 667.3066670000001a71.082667 71.082667 0 0 1 0 142.250666zM374.869333 700.586667A142.336 142.336 0 0 0 512 880.64a142.250667 142.250667 0 0 0 137.386667-178.944l213.162666-121.344a85.333333 85.333333 0 0 0 43.093334-74.24v-199.509333A142.250667 142.250667 0 1 0 797.098667 46.08000000000004l-241.749334-137.728a85.333333 85.333333 0 0 0-84.48 0L228.010667 46.591999999999985A142.250667 142.250667 0 1 0 120.576 307.20000000000005V506.197333a85.333333 85.333333 0 0 0 43.093333 74.154667l211.2 120.32zM191.658667 464.810667v-157.44A142.250667 142.250667 0 0 0 279.893333 98.98666700000001l190.976-108.8a85.333333 85.333333 0 0 1 84.48 0l189.354667 107.776A142.250667 142.250667 0 0 0 834.56 307.88266699999997v157.013333a85.333333 85.333333 0 0 1-43.093333 74.069333L614.4 639.829333c-25.941333-26.88-62.293333-43.605333-102.485333-43.605333-39.850667 0-75.861333 16.384-101.632 42.752L234.666667 538.965333a85.333333 85.333333 0 0 1-43.093334-74.154666z m-35.242667-366.336a71.082667 71.082667 0 1 1 0 142.165333 71.082667 71.082667 0 0 1 0-142.165333z m711.168 0a71.082667 71.082667 0 1 1 0 142.165333 71.082667 71.082667 0 0 1 0-142.165333z"  horiz-adv-x="1024" />

    
    <glyph glyph-name="homeplan" unicode="&#59064;" d="M717.10156223 266.78906223H482.6796875c-17.57812473 0-29.25000027-11.67187473-29.25000027-29.24999946 0-17.57812473 11.67187473-29.3203125 29.25000027-29.3203125h234.42187473c17.57812473 0 29.25000027 11.74218777 29.25000027 29.3203125 0 17.57812473-11.67187473 29.25000027-29.25000027 29.24999946z m-351.56249946 175.78125054h-58.640625c-17.57812473 0-29.25000027-11.67187473-29.25000027-29.25000027 0-17.57812473 11.67187473-29.3203125 29.25000027-29.3203125h58.640625c17.57812473 0 29.25000027 11.74218777 29.24999946 29.3203125 0 17.57812473-11.67187473 29.25000027-29.24999946 29.25000027z m0-175.78125054h-58.640625c-17.57812473 0-29.25000027-11.67187473-29.25000027-29.24999946 0-17.57812473 11.67187473-29.3203125 29.25000027-29.3203125h58.640625c17.57812473 0 29.25000027 11.74218777 29.24999946 29.3203125 0 17.57812473-11.67187473 29.25000027-29.24999946 29.24999946z m351.56249946 175.78125054H482.6796875c-17.57812473 0-29.25000027-11.67187473-29.25000027-29.25000027 0-17.57812473 11.67187473-29.3203125 29.25000027-29.3203125h234.42187473c17.57812473 0 29.25000027 11.74218777 29.25000027 29.3203125 0 17.57812473-11.67187473 29.25000027-29.25000027 29.25000027z m0 175.78124973H482.6796875c-17.57812473 0-29.25000027-11.67187473-29.25000027-29.25000027 0-17.57812473 11.67187473-29.3203125 29.25000027-29.3203125h234.42187473c17.57812473 0 29.25000027 11.74218777 29.25000027 29.3203125 0 17.57812473-11.67187473 29.25000027-29.25000027 29.25000027zM863.56250027 794.13281223H160.43749973C125.28125027 794.13281223 101.86718777 770.71874973 101.86718777 735.56250027v-703.12500054c0-35.15625027 23.4140625-58.57031277 58.57031196-58.57031196h703.12500054c35.15625027 0 58.57031277 23.4140625 58.57031196 58.57031196V735.56250027c0 35.15625027-23.4140625 58.57031277-58.57031196 58.57031196z m0-708.9609375c0-29.3203125-23.4140625-52.734375-52.734375-52.734375h-597.65625054a52.5234375 52.5234375 0 0 0-52.734375 52.734375v597.65625054c0 29.3203125 23.4140625 52.734375 52.734375 52.734375h597.65625054c29.3203125 0 52.734375-23.4140625 52.734375-52.734375v-597.65625054zM365.53906277 618.3515625h-58.640625c-17.57812473 0-29.25000027-11.67187473-29.25000027-29.25000027 0-17.57812473 11.67187473-29.3203125 29.25000027-29.3203125h58.640625c17.57812473 0 29.25000027 11.74218777 29.24999946 29.3203125 0 17.57812473-11.67187473 29.25000027-29.24999946 29.25000027z"  horiz-adv-x="1024" />

    
    <glyph glyph-name="homeservice" unicode="&#59066;" d="M162.19531277 636.56249973h144.0703125v-42.1875c0-23.34375027 16.17187527-42.25781223 35.99999946-42.25781223h120.0234375c19.828125 0 36.00000027 18.984375 36.00000027 42.1875v42.1875h431.92968777a26.71875027 26.71875027 0 0 1 19.33593696 8.29687473 28.54687473 28.54687473 0 0 1 8.015625 19.96875027c0 15.53906277-12.30468723 28.12499973-27.421875 28.12499973H498.078125v42.1875c0 23.203125-16.17187527 42.25781223-36.00000027 42.25781304H342.12500027c-19.828125 0-36.00000027-18.984375-36.00000027-42.1875v-42.1875H162.19531277a27.77343777 27.77343777 0 0 1-27.421875-28.12500054c0-15.609375 12.30468723-28.265625 27.421875-28.265625z m191.953125 84.44531304H450.12500027V608.29687473H354.14843777V721.00781277z m575.92968723-309.79687527H786.07812473v42.1875c0 23.203125-16.17187527 42.1875-35.99999946 42.1875H630.125c-19.828125 0-36.00000027-18.91406277-36.00000027-42.1875v-42.1875H162.19531277a26.71875027 26.71875027 0 0 1-19.33593777-8.2265625 28.54687473 28.54687473 0 0 1-8.015625-20.0390625c0-15.46874973 12.30468723-28.12499973 27.421875-28.12499973H594.265625v-42.1875c0-23.203125 16.17187527-42.1875 36.00000027-42.1875H750.359375c19.828125 0 36.00000027 18.91406277 36.00000027 42.1875v42.1875h143.99999946a27.421875 27.421875 0 0 1 23.8359375 14.1328125 28.0546875 28.0546875 0 1 1-23.97656196 42.1875z m-191.953125-84.44531223H642.07812527V439.40625027h95.9765625v-112.640625z m191.953125-197.50781304V129.46874973H498.14843723v42.25781304c0 23.203125-16.17187527 42.1875-35.99999946 42.1875H342.12500027c-19.828125 0-36.00000027-18.984375-36.00000027-42.1875v-42.1875H162.19531277v-0.28125054a27.77343777 27.77343777 0 0 1-27.421875-28.12499973 27.84375 27.84375 0 0 1 29.81249973-27.98437527h141.5390625v-42.1875c0-23.203125 16.17187527-42.25781223 36.00000027-42.25781223h120.0234375c19.828125 0 36.00000027 18.984375 35.99999946 42.1875v42.25781223h429.46875l2.46093777-0.2109375a27.421875 27.421875 0 0 1 23.8359375 14.06250027 28.96874973 28.96874973 0 0 1 0 28.12499973 27.421875 27.421875 0 0 1-23.8359375 14.1328125zM450.12500027 45.09374973000001H354.14843777V157.73437473H450.12500027v-112.71093723z"  horiz-adv-x="1109" />

    
    <glyph glyph-name="Icon-chuangjian" unicode="&#59069;" d="M442.254222 453.745778V896h139.491556v-442.254222H1024v-139.491556h-442.254222V-128H442.254222v442.254222H0V453.745778z"  horiz-adv-x="1024" />

    
    <glyph glyph-name="homeadd" unicode="&#58915;" d="M921.491325 344.829885L102.508675 344.829885c-21.194718 0-38.389332 17.678638-38.389332 38.885636s17.195637 38.885636 38.389332 38.885636l818.98265 0c21.194718 0 38.390355-17.678638 38.390355-38.885636S942.686043 344.829885 921.491325 344.829885zM512.197498-64.009593c-21.194718 0-38.885636 17.183358-38.885636 38.389332L473.311863 793.363412c0 21.206998 17.690918 38.389332 38.885636 38.389332s38.885636-17.183358 38.885636-38.389332l0-818.98265C551.083134-46.826235999999994 533.392216-64.009593 512.197498-64.009593z"  horiz-adv-x="1024" />

    
    <glyph glyph-name="homeedite" unicode="&#58927;" d="M853.319 344.437c0 18.85 15.28 34.132 34.131 34.132s34.132-15.28 34.132-34.132V93.89999999999998c0-65.223-48.815-119.462-110.928-119.462H196.279c-62.112 0-110.928 54.24-110.928 119.462V691.2090000000001c0 65.221 48.816 119.462 110.928 119.462H465.83c18.85 0 34.133-15.281 34.133-34.133s-15.281-34.132-34.133-34.132H196.28c-22.715 0-42.665-22.167-42.665-51.198V93.89999999999998c0-29.031 19.95-51.198 42.664-51.198h614.375c22.714 0 42.665 22.167 42.665 51.198V344.437z m-303.01 4.109c-12.523-14.09-34.097-15.358-48.186-2.835s-15.358 34.098-2.835 48.186l341.32 383.985c12.522 14.089 34.097 15.358 48.186 2.834s15.357-34.097 2.834-48.186L550.31 348.54600000000005z"  horiz-adv-x="1024" />

    
    <glyph glyph-name="daochu" unicode="&#59053;" d="M649.728 668.16H550.976v-487.616c0-6.208-4.8-11.456-10.688-11.456H460.16c-5.888 0-10.688 5.248-10.688 11.52V668.16H350.464c-8.896 0-13.888 11.072-8.32 18.496L491.648 891.008a10.432 10.432 0 0 0 8.448 4.48c3.264 0 6.4-1.664 8.448-4.48l149.504-204.16a12.352 12.352 0 0 0 1.152-12.16 10.752 10.752 0 0 0-9.472-6.528z m339.072-444.352h-80.128c-5.888 0-10.688-5.12-10.688-11.52v-221.888H102.016v221.888c0 6.4-4.8 11.52-10.688 11.52H11.2c-5.952 0-10.688-5.12-10.688-11.52v-285.248c0-25.472 19.072-46.08 42.752-46.08h913.472a41.152 41.152 0 0 1 30.272 13.44 48 48 0 0 1 12.48 32.64v285.248c0 6.4-4.736 11.52-10.688 11.52z"  horiz-adv-x="1024" />

    
    <glyph glyph-name="daoru" unicode="&#59054;" d="M350.4 396.416h98.688V884.032c0 6.208 4.864 11.456 10.688 11.456h80.192c5.824 0 10.688-5.248 10.688-11.52v-487.552h98.944c8.96 0 13.888-11.072 8.32-18.56l-149.504-204.288a10.432 10.432 0 0 0-8.384-4.48 10.432 10.432 0 0 0-8.448 4.48l-149.568 204.16a12.352 12.352 0 0 0-1.152 12.16 10.752 10.752 0 0 0 9.536 6.528z m638.4-172.608h-80.128c-5.888 0-10.688-5.12-10.688-11.52v-221.888H102.016v221.888c0 6.4-4.8 11.52-10.688 11.52H11.2c-5.952 0-10.688-5.12-10.688-11.52v-285.248c0-25.472 19.072-46.08 42.752-46.08h913.472a41.152 41.152 0 0 1 30.272 13.44 48 48 0 0 1 12.48 32.64v285.248c0 6.4-4.736 11.52-10.688 11.52z"  horiz-adv-x="1024" />

    
    <glyph glyph-name="border-center" unicode="&#59043;" d="M0-37.000533h1092.266667V-128H0v90.999467zM978.466133 281.6H85.060267V554.666667h893.405866v-273.066667zM887.466667 372.599467V463.6672H183.842133v-91.067733H887.466667zM0 805.000533V896h1092.266667v-90.999467H0zM0-128v90.999467h1092.266667V-128H0z"  horiz-adv-x="1092" />

    
    <glyph glyph-name="touxiang" unicode="&#58999;" d="M134.048959 542.137557c0.02681-133.244666 107.963032-241.207697 241.073649-241.180887 133.083807 0.02681 240.966409 108.043461 240.966409 241.288126s-107.936222 241.234507-241.020029 241.234508a240.91279 240.91279 0 0 1-170.456657-70.697422A241.395366 241.395366 0 0 1 134.048959 542.110747zM551.879565 379.187642c-6.43435 33.833957-65.871659 66.193376-119.196334 83.861029-2.60055 0.857913-18.820474 8.176987-8.659563 39.008247 26.541694 27.238749 46.702657 71.126378 46.702657 114.343763 0 66.354235-44.155727 101.180154-95.523288 101.180154-51.340751 0-95.389239-34.7723-95.389239-101.180154 0-43.351433 20.134154-87.399921 46.756277-114.61186 10.375389-27.185129-8.176987-37.31923-12.064407-38.68653-50.724126-18.284278-109.652049-50.750936-116.166828-83.861029a241.154078 241.154078 0 0 0-27.989423 289.358083 240.617882 240.617882 0 0 0 270.5108 105.73782 240.939599 240.939599 0 0 0 175.336039-231.743841 239.465061 239.465061 0 0 0-64.316691-163.405682"  horiz-adv-x="1644" />

    
    <glyph glyph-name="Icon-fabu" unicode="&#59004;" d="M1105.92 889.685333L66.474667 507.818667C20.053333 490.666667 14.506667 420.949333 57.6 395.434667l321.024-190.293334v-262.826666c0-33.877333 24.917333-61.44 55.722667-61.44 30.72 0 55.722667 27.562667 55.722666 61.44V214.613333l464.213334 355.84a63.829333 63.829333 0 0 1 24.32 55.808 61.610667 61.610667 0 0 1-32.085334 50.688 51.456 51.456 0 0 1-55.808-5.632L427.008 315.904l-202.922667 120.32 819.882667 301.226667-158.208-674.730667L622.08 206.250667a51.029333 51.029333 0 0 1-43.008 2.986666 58.026667 58.026667 0 0 1-32.085333-31.744c-13.056-30.464-0.853333-66.901333 26.538666-81.834666l324.266667-176.554667c15.018667-8.192 32.597333-8.533333 47.786667-0.768a60.330667 60.330667 0 0 1 30.805333 40.448L1177.6 815.957333c11.093333 47.189333-29.696 89.088-71.68 73.728z"  horiz-adv-x="1194" />

    
    <glyph glyph-name="shenpijiedian1" unicode="&#59034;" d="M1024-128H170.666667c-93.866667 0-170.666667 76.8-170.666667 170.666667V725.333333c0 93.866667 76.8 170.666667 170.666667 170.666667h853.333333c93.866667 0 170.666667-76.8 170.666667-170.666667v-682.666666c0-93.866667-76.8-170.666667-170.666667-170.666667zM170.666667 810.666667c-46.933333 0-85.333333-38.4-85.333334-85.333334v-682.666666c0-46.933333 38.4-85.333333 85.333334-85.333334h853.333333c46.933333 0 85.333333 38.4 85.333333 85.333334V725.333333c0 46.933333-38.4 85.333333-85.333333 85.333334H170.666667zM268.8 597.333333c17.066667-42.666667 46.933333-98.133333 98.133333-93.866666 46.933333 0 76.8 51.2 93.866667 93.866666 21.333333 8.533333 21.333333 42.666667 4.266667 55.466667 17.066667 157.866667-230.4 149.333333-209.066667 0-17.066667-17.066667-8.533333-51.2 12.8-55.466667z m170.666667-110.933333c-21.333333-29.866667-34.133333-68.266667-51.2-98.133333-4.266667 17.066667-4.266667 42.666667-8.533334 59.733333 0 4.266667 17.066667 8.533333 4.266667 8.533333H337.066667c12.8-8.533333 4.266667-55.466667 0-76.8-17.066667 34.133333-29.866667 72.533333-51.2 98.133334-89.6-4.266667-157.866667-38.4-157.866667-136.533334h469.333333c0 98.133333-68.266667 132.266667-157.866666 145.066667z"  horiz-adv-x="1194" />

    
    <glyph glyph-name="ziliucheng-2" unicode="&#59027;" d="M1109.333333-128H85.333333c-46.933333 0-85.333333 38.4-85.333333 85.333333V810.666667C0 857.6 38.4 896 85.333333 896h1024c46.933333 0 85.333333-38.4 85.333334-85.333333v-853.333334c0-46.933333-38.4-85.333333-85.333334-85.333333zM85.333333 810.666667v-853.333334h1024V810.666667H85.333333zM917.333333 601.6c0 46.933333-38.4 85.333333-85.333333 85.333333s-85.333333-38.4-85.333333-85.333333c0-25.6 12.8-51.2 29.866666-64l-64-170.666667h-8.533333c-12.8 0-25.6-4.266667-38.4-8.533333l-98.133333 89.6c4.266667 8.533333 8.533333 21.333333 8.533333 34.133333 0 46.933333-38.4 85.333333-85.333333 85.333334s-85.333333-38.4-85.333334-85.333334c0-21.333333 8.533333-42.666667 21.333334-55.466666l-64-170.666667c-46.933333 0-85.333333-38.4-85.333334-85.333333s38.4-85.333333 85.333334-85.333334 85.333333 38.4 85.333333 85.333334c0 25.6-8.533333 46.933333-25.6 64l64 170.666666h8.533333c12.8 0 25.6 4.266667 34.133334 8.533334l102.4-89.6c-4.266667-8.533333-8.533333-21.333333-8.533334-34.133334 0-46.933333 38.4-85.333333 85.333334-85.333333s85.333333 38.4 85.333333 85.333333c0 21.333333-8.533333 38.4-21.333333 55.466667l68.266666 179.2c42.666667-4.266667 76.8 29.866667 76.8 76.8z"  horiz-adv-x="1194" />

    
    <glyph glyph-name="border-bottom" unicode="&#59011;" d="M0-42.688h1024V-128H0v85.312zM256 896v-853.312H0V896h256zM170.688 810.688H85.312V128h85.376V810.688zM1024 896v-853.312h-256V896h256z m-85.312-85.312h-85.376V128h85.376V810.688zM640 725.312v-682.624H384V725.312h256zM554.688 640H469.312v-512h85.376V640z"  horiz-adv-x="1024" />

    
    <glyph glyph-name="binghangwangguan" unicode="&#58884;" d="M708.923077 423.384615h-157.538462V580.923077c0 23.630769-15.753846 39.384615-39.384615 39.384615s-39.384615-15.753846-39.384615-39.384615v-157.538462H315.076923c-23.630769 0-39.384615-15.753846-39.384615-39.384615s15.753846-39.384615 39.384615-39.384615h157.538462v-157.538462c0-23.630769 15.753846-39.384615 39.384615-39.384615s39.384615 15.753846 39.384615 39.384615v157.538462h157.538462c23.630769 0 39.384615 15.753846 39.384615 39.384615s-15.753846 39.384615-39.384615 39.384615zM980.676923 447.015385L563.2 864.492308c-31.507692 31.507692-78.769231 31.507692-110.276923 0L31.507692 447.015385c-31.507692-31.507692-31.507692-78.769231 0-110.276923l421.415385-421.415385c31.507692-31.507692 78.769231-31.507692 110.276923 0L984.615385 336.738462c27.569231 27.569231 27.569231 78.769231-3.938462 110.276923z m-82.707692-86.646154l-366.276923-366.276923c-15.753846-15.753846-39.384615-15.753846-55.138462 0l-366.276923 366.276923c-15.753846 15.753846-15.753846 39.384615 0 55.138461l366.276923 366.276923c15.753846 15.753846 39.384615 15.753846 55.138462 0l366.276923-366.276923c15.753846-11.815385 15.753846-39.384615 0-55.138461z"  horiz-adv-x="1024" />

    
    <glyph glyph-name="huchiwangguan" unicode="&#58902;" d="M677.415385 549.415385c-15.753846 15.753846-39.384615 15.753846-55.138462 0L512 439.138462l-110.276923 110.276923c-15.753846 15.753846-39.384615 15.753846-55.138462 0-15.753846-15.753846-15.753846-39.384615 0-55.138462l110.276923-110.276923-110.276923-110.276923c-15.753846-15.753846-15.753846-39.384615 0-55.138462 15.753846-15.753846 39.384615-15.753846 55.138462 0l110.276923 110.276923 110.276923-110.276923c15.753846-15.753846 39.384615-15.753846 55.138462 0 15.753846 15.753846 15.753846 39.384615 0 55.138462L567.138462 384l110.276923 110.276923c15.753846 15.753846 15.753846 43.323077 0 55.138462zM980.676923 447.015385L563.2 864.492308c-31.507692 31.507692-78.769231 31.507692-110.276923 0L31.507692 447.015385c-31.507692-31.507692-31.507692-78.769231 0-110.276923l421.415385-421.415385c31.507692-31.507692 78.769231-31.507692 110.276923 0L984.615385 336.738462c27.569231 27.569231 27.569231 78.769231-3.938462 110.276923z m-82.707692-86.646154l-366.276923-366.276923c-15.753846-15.753846-39.384615-15.753846-55.138462 0l-366.276923 366.276923c-15.753846 15.753846-15.753846 39.384615 0 55.138461l366.276923 366.276923c15.753846 15.753846 39.384615 15.753846 55.138462 0l366.276923-366.276923c15.753846-11.815385 15.753846-39.384615 0-55.138461z"  horiz-adv-x="1024" />

    
    <glyph glyph-name="align-left" unicode="&#58982;" d="M85.312 896v-1024H0V896h85.312zM1024 640H170.688V896H1024v-256z m-85.312 85.312V810.688H256v-85.376h682.688zM1024-128H170.688v256H1024v-256z m-85.312 85.312v85.376H256v-85.376h682.688zM853.312 256H170.688V512h682.624v-256zM768 341.312V426.688H256v-85.376h512z"  horiz-adv-x="1024" />

    
    <glyph glyph-name="bianzu4" unicode="&#58984;" d="M467.878957 630.338783l-122.301218 115.756521a27.870609 27.870609 0 0 0-8.147478 14.380522c-3.294609 15.226435 7.078957 30.096696 23.151304 33.168696L702.909217 869.64313a31.387826 31.387826 0 0 0 11.842783 0c16.11687-3.116522 26.534957-18.031304 23.28487-33.257739L689.775304 481.947826a27.603478 27.603478 0 0 0-8.102956-14.336 30.942609 30.942609 0 0 0-42.073044 0.089044L517.921391 582.92313 185.210435 267.798261a36.774957 36.774957 0 0 0-49.997913 0.089043 32.233739 32.233739 0 0 0-0.089044 47.326609L467.923478 630.338783zM621.078261 223.721739l-104.804174 104.804174a25.377391 25.377391 0 0 0-6.90087 13.000348 26.000696 26.000696 0 0 0 20.21287 30.408348l318.063304 66.159304a25.377391 25.377391 0 0 0 30.096696-30.096696l-66.159304-318.063304a26.045217 26.045217 0 0 0-7.123479-13.089391 25.689043 25.689043 0 0 0-36.285217-0.222609l-104.18087 104.225391-15.449043-15.404521a30.497391 30.497391 0 0 0-43.141565-0.222609 30.497391 30.497391 0 0 0 0.26713 43.097043l15.404522 15.404522z m-246.472348-332.221217a30.497391 30.497391 0 0 0-43.141565-0.222609 30.497391 30.497391 0 0 0 0.26713 43.141565l57.07687 57.032348a30.497391 30.497391 0 0 0 43.097043 0.267131c11.842783-11.842783 11.753739-31.165217-0.222608-43.186087l-57.07687-56.987827z m136.993391 136.948869a30.497391 30.497391 0 0 0-43.186087-0.222608 30.497391 30.497391 0 0 0 0.267131 43.141565L525.801739 128.445217a30.497391 30.497391 0 0 0 43.141565 0.222609c11.842783-11.842783 11.709217-31.165217-0.26713-43.141565l-57.032348-57.07687z"  horiz-adv-x="1024" />

    
    <glyph glyph-name="baocun" unicode="&#58985;" d="M563.904 773.376a48.64 48.64 0 0 1-47.936-49.28v-30.656a48.64 48.64 0 0 1 48-49.28 48.64 48.64 0 0 1 47.936 49.28v30.656a48.64 48.64 0 0 1-48 49.28z m427.776-154.624c0 2.048-0.896 3.84-1.152 5.76a48.96 48.96 0 0 1-13.632 41.024L761.216 881.28a49.344 49.344 0 0 1-36.096 14.464c-0.512 0-0.896 0.256-1.344 0.256h-38.272L685.312 896l-0.448-0.064H339.2L338.944 896h-257.28l-0.768-0.128L80.256 896A46.528 46.528 0 0 1 49.92 883.968C48.896 883.072 47.552 882.688 46.656 881.664 45.568 880.64 45.056 879.168 44.096 878.08A45.888 45.888 0 0 1 32.384 848l0.128-0.64-0.128-0.64v-924.8l0.128-0.768-0.128-0.64c0-11.968 4.928-22.592 12.352-30.912 0.64-0.832 1.152-1.92 1.856-2.624 1.28-1.344 2.944-1.984 4.352-3.2 8.192-6.912 18.56-10.88 29.44-11.136l0.512 0.128 0.64-0.128h861.12l0.64 0.128 0.512-0.128a46.464 46.464 0 0 1 29.312 11.264c1.344 1.152 3.2 1.792 4.352 3.136 0.768 0.768 1.28 1.792 1.92 2.56a46.848 46.848 0 0 1 12.224 31.04l-0.128 0.64 0.128 0.768 0.128 696.704zM386.752 800h250.496v-193.28H386.752v193.28z m352.512-831.488h-454.4v250.88l62.208 62.208h329.856l62.336-62.336v-250.752z m156.48 0h-60.544v267.072c0 0.64-0.32 1.28-0.384 1.792a48.896 48.896 0 0 1-14.4 36.48l-89.088 88.832a49.28 49.28 0 0 1-36.032 14.464c-0.576 0-1.088 0.32-1.536 0.32H330.88c-0.64 0-1.28-0.32-1.92-0.384a49.28 49.28 0 0 1-36.416-14.336L203.52 273.92a49.92 49.92 0 0 1-14.336-36.608c0-0.512-0.32-1.024-0.32-1.6v-267.072h-60.608V800.064h162.56v-239.872l0.128-0.64-0.128-0.64c0-11.712 4.8-21.952 11.968-30.272 0.832-1.088 1.344-2.432 2.368-3.392 1.024-1.024 2.304-1.472 3.392-2.368a46.72 46.72 0 0 1 30.336-11.968l0.64 0.128 0.64-0.128h343.68l0.704 0.128 0.704-0.128a46.4 46.4 0 0 1 30.336 11.968c1.152 0.896 2.368 1.28 3.392 2.368 1.088 0.96 1.472 2.368 2.368 3.392a46.656 46.656 0 0 1 12.032 30.208l-0.128 0.64 0.128 0.704V773.568l162.368-162.56V-31.36z"  horiz-adv-x="1024" />

    
    <glyph glyph-name="fengexian" unicode="&#58986;" d="M276.645935 896m23.272727 0l0 0q23.272727 0 23.272727-23.272727l0-977.454546q0-23.272727-23.272727-23.272727l0 0q-23.272727 0-23.272727 23.272727l0 977.454546q0 23.272727 23.272727 23.272727Z"  horiz-adv-x="1024" />

    
    <glyph glyph-name="fangxiang-xiangyou" unicode="&#58990;" d="M182.857143 883.858286L0 697.490286l731.428571-727.917715 731.428572 727.917715L1280 883.858286 731.428571 335.286857z"  horiz-adv-x="1462" />

    
    <glyph glyph-name="kuangxuan" unicode="&#59003;" d="M170.574769-124.849231h82.983385v104.054154H170.574769v-104.014769z m0 174.198154h82.983385v104.014769H170.574769v-104.014769z m0 174.316308h82.983385V327.68H170.574769v-104.014769zM1022.582154 711.246769v-82.983384h-104.014769V711.246769h103.975384z m-174.158769 0v-82.983384H744.369231V711.246769h104.054154z m-174.316308 0v-82.983384h-104.054154V711.246769h104.054154zM941.016615-124.849231H1024v104.054154h-82.983385v-104.014769z m0 174.198154H1024v104.014769h-82.983385v-104.014769z m0 184.083692H1024v104.01477h-82.983385v-104.01477z m0 186.171077H1024V523.618462h-82.983385v-104.01477zM824.871385-47.261538v-77.587693h-104.01477v77.587693zM649.334154-48.167385v-77.508923h-104.054154v77.508923zM463.163077-48.167385v-77.508923H359.108923v77.508923zM212.401231 881.112615c-25.127385 0-45.489231-20.361846-45.489231-45.48923V719.950769h-99.249231a50.609231 50.609231 0 0 1 0-101.218461h99.249231v-122.249846a45.489231 45.489231 0 1 1 90.978462 0v122.092307h98.579692a50.609231 50.609231 0 0 1 0 101.218462H257.890462v115.790769c0 25.127385-20.361846 45.489231-45.489231 45.489231z"  horiz-adv-x="1024" />

    
    <glyph glyph-name="xiangzuofanhui" unicode="&#59005;" d="M861.9008 768L731.4432 896 221.9008 384l509.5424-512 130.4576 128L477.9008 384z"  horiz-adv-x="1024" />

    
    <glyph glyph-name="align-center1" unicode="&#59009;" d="M460.16-128V896h103.68v-1024H460.16zM64 318.848h896v-296.32H64v296.32z m89.6-98.816v-98.752h716.8v98.752H153.6z m0 525.44h716.8v-296.32H153.6v296.32z m89.6-98.752v-98.752h537.6V646.72H243.2z"  horiz-adv-x="1024" />

    
    <glyph glyph-name="redo" unicode="&#59015;" d="M1019.782334 448.636674V448.060752h-132.462035v0.51193H572.674973l208.099777 206.30802a383.947927 383.947927 0 1 1 90.09978-398.793914h136.813445a511.930569 511.930569 0 1 0-134.381775 490.493477L1023.813788 896v-447.363326h-4.031454z"  horiz-adv-x="1024" />

    
    <glyph glyph-name="border-top" unicode="&#59016;" d="M1024 810.688H0V896h1024v-85.312zM768-128V725.312h256V-128h-256z m85.312 85.312h85.376V640h-85.376v-682.688zM0-128V725.312h256V-128H0z m85.312 85.312h85.376V640H85.312v-682.688zM384 42.688V725.312h256v-682.624H384zM469.312 128h85.376V640H469.312v-512z"  horiz-adv-x="1024" />

    
    <glyph glyph-name="delete" unicode="&#59021;" d="M341.312 810.688l64 85.312h213.376l64-85.312H960v-85.376H64V810.688h277.312zM170.688 640h682.624v-768H170.688V640zM256 554.688v-597.376h512V554.688H256z m213.312-85.376v-426.624H384V469.312h85.312z m170.688 0v-426.624H554.688V469.312H640z"  horiz-adv-x="1024" />

    
    <glyph glyph-name="align-right" unicode="&#59023;" d="M938.688-128V896H1024v-1024h-85.312zM0 128h853.312v-256H0v256z m85.312-85.312v-85.376H768v85.376H85.312zM0 896h853.312v-256H0V896z m85.312-85.312v-85.376H768V810.688H85.312zM170.688 512h682.624v-256H170.688V512zM256 426.688v-85.376h512V426.688H256z"  horiz-adv-x="1024" />

    
    <glyph glyph-name="sort-line" unicode="&#59024;" d="M299.477218 202.704756V896H446.839023v-877.588916H446.107699l-0.219397-146.411084L0 284.320526l100.630196 100.191401L299.477218 202.704756z m435.357234 363.687474v-694.39223H587.25325V772.991287l0.365662-0.219397L588.277103 896 1023.853735 495.234395l-91.04985-108.528496-197.969433 179.686331z"  horiz-adv-x="1024" />

    
    <glyph glyph-name="search-minus" unicode="&#59025;" d="M1004.36224-18.88l-198.4 198.272a447.552 447.552 0 1 1-90.368-90.368l198.208-198.208a64 64 0 1 1 90.56 90.304z m-556.8 146.688a319.68 319.68 0 1 0 0 639.36 319.68 319.68 0 1 0 0-639.36zM255.75424 511.36v-127.872H639.37024V511.36H255.75424z"  horiz-adv-x="1024" />

    
    <glyph glyph-name="caret-down" unicode="&#59030;" d="M1455.824606 708.138631H160.187167c-38.784283 0-60.600441-41.006299-36.360265-68.882501l647.616718-751.445475a49.288359 49.288359 0 0 1 73.124533 0l647.818719 751.445475c24.038175 27.876203 2.222016 68.882502-36.562266 68.882501z"  horiz-adv-x="1616" />

    
    <glyph glyph-name="search-plus" unicode="&#59031;" d="M1004.36224-18.88l-198.4 198.272a447.552 447.552 0 1 1-90.368-90.368l198.208-198.208a64 64 0 1 1 90.56 90.304zM383.62624 511.36H255.75424v-127.872h127.872v-127.872h127.872V383.488H639.37024V511.36H511.49824V639.232H383.62624V511.36z m64-383.616a319.68 319.68 0 1 0 0 639.36 319.68 319.68 0 0 0 0-639.36z"  horiz-adv-x="1024" />

    
    <glyph glyph-name="check" unicode="&#59032;" d="M493.056 127.573333L1240.405333 896 1365.333333 768.512 493.312-128l-27.050667 27.818667-0.170666-0.170667L0 377.6 128.170667 501.76z"  horiz-adv-x="1365" />

    
    <glyph glyph-name="search" unicode="&#59033;" d="M1004.36224-18.88l-198.4 198.272a447.552 447.552 0 1 1-90.368-90.368l198.208-198.208a64 64 0 1 1 90.56 90.304z m-556.8 146.688a319.68 319.68 0 1 0 0 639.36 319.68 319.68 0 1 0 0-639.36z"  horiz-adv-x="1024" />

    
    <glyph glyph-name="undo" unicode="&#59035;" d="M35.776 448.512V448h124.16L160 448.512h294.912L259.904 654.912c120.32 128.896 308.928 150.016 451.776 50.56 142.848-99.328 200.704-291.968 138.56-461.376-62.08-169.408-227.072-269.056-395.264-238.784v-129.664c222.72-28.352 434.112 111.488 509.248 336.768 75.136 225.344-6.016 476.16-195.456 604.16C579.328 944.448 332.032 915.456 173.12 746.688L32 896v-447.488h3.776z"  horiz-adv-x="1024" />

    
    <glyph glyph-name="zhuashou" unicode="&#59040;" d="M469.868308 803.721846C469.868308 854.606769 513.939692 896 566.912 896c52.972308 0 97.004308-41.393231 97.004308-93.932308l0.196923-61.046154a98.382769 98.382769 0 0 0 107.756307 61.44c52.381538-8.979692 88.339692-59.549538 78.375385-111.458461l-15.753846-108.150154a99.091692 99.091692 0 0 0 104.329846 27.884308c50.806154-17.014154 78.099692-72.940308 59.431385-122.88l-131.032616-402.983385-2.244923-6.774154-0.630154-1.575384 0.866462 2.441846C822.124308-45.804308 701.843692-128 566.754462-128a427.559385 427.559385 0 0 0-244.184616 77.981538c-25.206154 14.060308-72.467692 53.956923-136.152615 113.23077a5593.009231 5593.009231 0 0 0-153.875693 149.267692c-46.237538 43.953231-41.747692 114.412308 5.907693 159.310769l22.646154-25.048615-22.646154 25.088c46.08 43.283692 114.372923 45.764923 159.980307 2.875077l94.444308-89.009231c11.185231-10.436923 19.771077-10.830769 24.103385-6.025846-1.024-1.063385-1.142154 22.055385-4.765539 49.427692l-47.261538 366.592c-6.892308 52.224 31.901538 100.667077 84.676923 106.732308 52.499692 5.907692 101.060923-31.665231 107.598769-83.495385l6.892308-38.045538 5.828923 122.88-0.078769-0.039385zM78.936615 261.789538c8.900923-8.940308 23.197538-23.315692 41.905231-41.826461 36.391385-35.958154 73.255385-71.404308 110.592-106.220308 59.470769-55.374769 104.802462-93.577846 126.503385-105.865846a365.489231 365.489231 0 0 1 209.211077-67.584c107.047385 0 201.531077 64.630154 234.141538 159.035077l-0.630154-2.126769 1.181539 3.544615 1.890461 5.828923 131.347693 404.401231a27.372308 27.372308 0 0 1-1.181539 21.307077 26.505846 26.505846 0 0 1-16.068923 13.705846c-15.714462 5.238154-33.870769-3.465846-39.384615-17.998769l-75.145846-189.479385a44.110769 44.110769 0 0 0-9.216-14.926769 33.516308 33.516308 0 0 0-45.371077-4.096c-12.721231 9.609846-15.123692 19.889231-15.123693 33.713231l50.648616 349.459692a28.750769 28.750769 0 0 1-5.12 21.267692 27.648 27.648 0 0 1-18.392616 11.185231c-16.462769 2.875077-32.768-8.349538-35.446154-22.803692l-56.477538-294.321231a35.209846 35.209846 0 0 0-14.572308-24.891077 33.831385 33.831385 0 0 0-27.963077-5.198769c-19.771077 4.489846-29.262769 22.409846-28.120615 39.542154l-1.260308 374.587077c0 13.705846-12.918154 25.757538-30.050461 25.757538-17.211077 0-30.011077-12.169846-30.011077-25.6l-17.723077-375.926154c-1.339077-20.834462-12.878769-39.463385-37.376-39.463384-18.904615 0-30.916923 12.445538-36.706462 27.726769l-53.956923 293.691077a30.838154 30.838154 0 0 1-33.949538 26.269538c-16.108308-1.969231-27.569231-16.265846-25.836308-29.932307l47.300923-366.552616c7.404308-56.516923 7.68-82.589538-12.209231-104.605538-31.074462-34.540308-81.92-32.571077-118.744615 1.969231l-94.523077 89.127384c-19.219692 18.038154-48.128 17.092923-69.316923-2.953846-20.440615-19.140923-21.937231-43.716923-5.001846-59.864615H78.936615v0.078769z"  horiz-adv-x="1024" />

    
    <glyph glyph-name="bianji" unicode="&#59001;" d="M862.378667 35.584c8.96 0 0-1.706667 0-8.533333v8.533333z m-1.962667 0V369.493333a49.749333 49.749333 0 1 0 99.584 0v-339.456c0-53.333333-45.824-94.037333-99.584-94.037333H163.584c-53.76 0-99.584 40.704-99.584 94.037333V737.962667C64 791.296 109.824 832 163.584 832H618.666667a49.749333 49.749333 0 0 0 0-99.584H163.584v-696.832h696.832z m-691.456 0v-8.533333c0 6.826667-8.96 8.533333 0 8.533333z m0 702.378667v-8.533334c-8.96 0 0 1.706667 0 8.533334z m378.197333-438.954667a49.749333 49.749333 0 0 0-70.314666 70.4l398.165333 398.250667a49.749333 49.749333 0 0 0 70.4-70.4L547.157333 299.008z"  horiz-adv-x="1024" />

    
    <glyph glyph-name="gengduo" unicode="&#59002;" d="M492.908633-116.660022c4.649391-7.257586 11.113178-11.339978 17.690366-11.339978 6.803987 0 13.040975 4.082392 17.803765 11.339978m0 0l477.299668 514.154596a62.369878 62.369878 0 0 1-1.247398 82.781838 50.803101 50.803101 0 0 1-75.751052 0L510.598999 30.419491 92.494015 480.276412a50.916501 50.916501 0 0 1-75.637652 0 62.369878 62.369878 0 0 1-1.247398-82.781838L492.908633-116.660022m-0.340199 398.827021c4.762791-7.257586 11.113178-11.339978 17.803765-11.339978 6.577187 0 13.040975 4.082392 17.690366 11.339978m0 0L1005.475632 796.321595a62.369878 62.369878 0 0 1-1.360797 82.781838 50.803101 50.803101 0 0 1-75.637653 0L510.372199 429.246512 92.267216 879.103433a50.916501 50.916501 0 0 1-75.751052 0 62.369878 62.369878 0 0 1-1.133998-82.781838l477.186268-514.154596"  horiz-adv-x="1024" />

    
    <glyph glyph-name="Icon-ashbin" unicode="&#59006;" d="M832 608a48.042667 48.042667 0 0 1-48.042667-48.042667v-591.957333h-64V560.042667a48.042667 48.042667 0 0 1-95.914666 0v-592.042667h-64V560.042667a48.042667 48.042667 0 0 1-96 0v-592.042667h-64V560.042667a48.042667 48.042667 0 0 1-96 0v-592.042667h-64V560.042667a48.042667 48.042667 0 0 1-96.085334 0v-640c0-26.538667 21.504-48.042667 48.042667-48.042667h640c26.453333 0 48.042667 21.504 48.042667 48.042667v640a48.042667 48.042667 0 0 1-48.042667 47.957333z m96 144.042667H687.957333V847.957333A48.042667 48.042667 0 0 1 640 896h-256a48.042667 48.042667 0 0 1-48.042667-48.042667v-96H96.085333a48.042667 48.042667 0 0 1 0-96h832a48.042667 48.042667 0 0 1 0 96.085334z m-496.042667 47.957333h160v-48.042667H432.042667v48.042667z"  horiz-adv-x="1024" />

    
    <glyph glyph-name="liucheng" unicode="&#58917;" d="M512-128C229.229714-128 0 101.229714 0 384S229.229714 896 512 896s512-229.229714 512-512-229.229714-512-512-512z m6.253714 350.354286a73.142857 73.142857 0 1 1 19.712-34.450286l85.833143 61.147429a73.142857 73.142857 0 1 1 13.056 98.377142l-176.932571 106.459429a73.508571 73.508571 0 0 1-9.874286 53.613714l140.873143 90.038857a73.142857 73.142857 0 1 1-29.513143 28.013715L419.181714 534.674286a73.142857 73.142857 0 1 1 22.674286-116.004572l172.544-103.826285a73.033143 73.033143 0 0 1-3.876571-26.770286l-92.269715-65.718857z"  horiz-adv-x="1024" />

    
    <glyph glyph-name="json" unicode="&#59325;" d="M213.333333 768h85.333334v-85.333333H213.333333v-213.333334a85.333333 85.333333 0 0 0-85.333333-85.333333 85.333333 85.333333 0 0 0 85.333333-85.333333v-213.333334h85.333334v-85.333333H213.333333c-45.653333 11.52-85.333333 38.4-85.333333 85.333333v170.666667a85.333333 85.333333 0 0 1-85.333333 85.333333H0v85.333334h42.666667a85.333333 85.333333 0 0 1 85.333333 85.333333V682.666667a85.333333 85.333333 0 0 0 85.333333 85.333333m597.333334 0a85.333333 85.333333 0 0 0 85.333333-85.333333v-170.666667a85.333333 85.333333 0 0 1 85.333333-85.333333h42.666667v-85.333334h-42.666667a85.333333 85.333333 0 0 1-85.333333-85.333333v-170.666667a85.333333 85.333333 0 0 0-85.333333-85.333333h-85.333334v85.333333h85.333334v213.333334a85.333333 85.333333 0 0 0 85.333333 85.333333 85.333333 85.333333 0 0 0-85.333333 85.333333V682.666667h-85.333334V768h85.333334m-298.666667-512a42.666667 42.666667 0 0 0 42.666667-42.666667 42.666667 42.666667 0 0 0-42.666667-42.666666 42.666667 42.666667 0 0 0-42.666667 42.666666 42.666667 42.666667 0 0 0 42.666667 42.666667m-170.666667 0a42.666667 42.666667 0 0 0 42.666667-42.666667 42.666667 42.666667 0 0 0-42.666667-42.666666 42.666667 42.666667 0 0 0-42.666666 42.666666 42.666667 42.666667 0 0 0 42.666666 42.666667m341.333334 0a42.666667 42.666667 0 0 0 42.666666-42.666667 42.666667 42.666667 0 0 0-42.666666-42.666666 42.666667 42.666667 0 0 0-42.666667 42.666666 42.666667 42.666667 0 0 0 42.666667 42.666667z"  horiz-adv-x="1024" />

    
    <glyph glyph-name="docvtl" unicode="&#58977;" d="M512 270.222222c-62.577778 0-113.777778 51.2-113.777778 113.777778s51.2 113.777778 113.777778 113.777778 113.777778-51.2 113.777778-113.777778-51.2-113.777778-113.777778-113.777778zM512 668.444444C449.422222 668.444444 398.222222 719.644444 398.222222 782.222222s51.2 113.777778 113.777778 113.777778 113.777778-51.2 113.777778-113.777778-51.2-113.777778-113.777778-113.777778z m0-568.888888c62.577778 0 113.777778-51.2 113.777778-113.777778s-51.2-113.777778-113.777778-113.777778-113.777778 51.2-113.777778 113.777778 51.2 113.777778 113.777778 113.777778z"  horiz-adv-x="1024" />

    
    <glyph glyph-name="listview" unicode="&#59115;" d="M68.500117 713.977363l98.906637 0 0-98.906637-98.906637 0 0 98.906637ZM266.314415 713.977363l692.348508 0 0-98.906637-692.348508 0 0 98.906637ZM68.500117 466.709747l98.906637 0 0-98.906637-98.906637 0 0 98.906637ZM266.314415 466.709747l692.348508 0 0-98.906637-692.348508 0 0 98.906637ZM68.500117 169.98881200000005l98.906637 0 0-98.906637-98.906637 0 0 98.906637ZM266.314415 169.98881200000005l494.53421 0 0-98.906637-494.53421 0 0 98.906637Z"  horiz-adv-x="1024" />

    
    <glyph glyph-name="pssearchview" unicode="&#59014;" d="M852.570629 746.472452c-7.446599 11.169387-18.614963 26.060539-33.507138 26.060539L96.795557 772.532991c-11.169387 0-26.061562-14.892175-29.78435-26.060539-7.445576-11.169387-3.722788-29.78435 3.722788-40.953737l253.165953-279.227516 0-309.010843c0-11.169387 7.446599-26.061562 22.337751-29.78435l189.874465-85.630263c3.723811-3.722788 11.169387-3.722788 14.893198-3.722788 7.445576 0 14.892175 0 18.61394 3.722788 11.169387 7.446599 18.615986 14.892175 18.615986 29.78435l11.169387 398.364917 245.720378 279.227516C856.293417 716.688101 856.293417 731.5813 852.570629 746.472452L852.570629 746.472452zM517.498224 83.77321800000004l-119.137401 55.845912L398.360823 400.23066l130.306788 0L517.498224 83.77321800000004 517.498224 83.77321800000004zM547.281551 478.414323c-3.722788 0-3.722788-3.722788-7.445576-3.722788L379.74586 474.691535 178.702008 698.073138l562.178843 0L547.281551 478.414323 547.281551 478.414323zM956.815855 221.52558199999999c0 14.892175-14.892175 29.78435-29.78435 29.78435L688.757726 251.309932c-14.892175 0-29.78435-14.893198-29.78435-29.78435l0-14.892175c0-14.893198 14.893198-29.78435 29.78435-29.78435l238.273778 0c14.893198 0 29.78435 14.892175 29.78435 29.78435L956.815855 221.52558199999999 956.815855 221.52558199999999zM956.815855 370.44630900000004c0 14.893198-14.892175 29.78435-29.78435 29.78435L688.757726 400.23066c-14.892175 0-29.78435-14.892175-29.78435-29.78435l0-14.892175c0-14.892175 14.893198-29.78435 29.78435-29.78435l238.273778 0c14.893198 0 29.78435 14.893198 29.78435 29.78435L956.815855 370.44630900000004 956.815855 370.44630900000004zM956.815855 72.60383100000001c0 14.892175-14.892175 29.783327-29.78435 29.783327L688.757726 102.387158c-14.892175 0-29.78435-14.892175-29.78435-29.783327l0-14.892175c0-14.892175 14.893198-29.78435 29.78435-29.78435l238.273778 0c14.893198 0 29.78435 14.892175 29.78435 29.78435L956.815855 72.60383100000001 956.815855 72.60383100000001z"  horiz-adv-x="1024" />

    
    <glyph glyph-name="formview" unicode="&#58979;" d="M695.308642 301.82716000000005H309.728395c-18.962963 0-37.925926-18.962963-37.925926-37.925925s18.962963-37.925926 37.925926-37.925926h385.580247c18.962963 0 37.925926 18.962963 37.925926 37.925926s-18.962963 37.925926-37.925926 37.925925zM309.728395 384h183.308642c18.962963 0 37.925926 18.962963 37.925926 37.925926s-12.641975 37.925926-37.925926 37.925926H309.728395c-18.962963 0-37.925926-18.962963-37.925926-37.925926s18.962963-37.925926 37.925926-37.925926z m385.580247-240.197531H309.728395c-18.962963 0-37.925926-18.962963-37.925926-37.925926s18.962963-37.925926 37.925926-37.925926h385.580247c18.962963 0 37.925926 18.962963 37.925926 37.925926 0 25.283951-18.962963 37.925926-37.925926 37.925926zM935.506173 573.62963V579.950617v6.320988L651.061728 877.037037h-6.320987H208.592593c-63.209877 0-113.777778-50.567901-113.777778-113.777778v-777.481481c0-63.209877 50.567901-113.777778 113.777778-113.777778h613.135802c63.209877 0 113.777778 50.567901 113.777778 113.777778V74.27160500000002c0 18.962963-18.962963 37.925926-37.925926 37.925926s-37.925926-18.962963-37.925926-37.925926v-88.493827c0-18.962963-18.962963-37.925926-37.925926-37.925926H208.592593c-18.962963 0-37.925926 18.962963-37.925926 37.925926V782.222222c0 18.962963 18.962963 37.925926 37.925926 37.925926h372.938271v-252.839506c0-18.962963 18.962963-37.925926 37.925926-37.925926h246.518519V263.90123500000004c0-18.962963 18.962963-37.925926 37.925926-37.925926s37.925926 18.962963 37.925925 37.925926l-6.320987 309.728395c0-6.320988 0-6.320988 0 0z m-278.123457 31.604938V763.2592589999999l151.703704-158.024691h-151.703704z"  horiz-adv-x="1024" />

    
    <glyph glyph-name="float" unicode="&#59099;" d="M299.121 609.191c-113.607 0-145.415-122.694-145.415-222.669 0-90.89 27.265-218.127 145.415-218.127 113.611 0 145.421 122.698 145.421 218.127 0 90.883-27.269 222.669-145.421 222.669v0zM299.121 222.92600000000004c-77.254 0-72.707 113.611-77.254 163.596 0 40.898 0 163.596 77.254 163.596 77.253 0 77.253-109.066 77.253-163.596 0-45.444 0-159.049-77.253-163.596v0zM299.121 222.92600000000004zM517.247 250.19600000000003c-27.269 0-45.444-22.721-45.444-45.444 0-27.269 22.721-45.444 45.444-45.444 27.263 0 45.444 18.176 45.444 45.444 0 22.722-22.722 45.444-45.444 45.444v0zM517.247 250.19600000000003zM726.282 436.508h-49.985v109.063c0 4.547 4.541 9.089 9.089 9.089h163.596v49.988h-209.039c-13.631 0-27.263-13.634-27.263-27.269v-163.596c0-13.631 13.634-31.81 27.263-31.81h95.427c45.444 0 59.077-36.352 59.077-81.794 0-40.898-27.269-72.706-68.164-72.706-54.53 0-72.706 27.263-77.254 81.794l-63.62-18.176c9.092-86.341 59.077-118.151 131.788-118.151 72.706 0 140.873 40.899 140.873 140.874 0 77.257-63.62 122.695-131.787 122.695v0zM726.282 436.508zM871.701 836.406h-727.084c-49.99 0-90.89-40.898-90.89-90.89v-727.082c0-49.985 40.898-90.882 90.89-90.882h727.084c49.985 0 90.882 40.898 90.882 90.882v727.084c0 49.99-40.898 90.887-90.882 90.887v0zM917.141 18.436000000000035c0-27.263-18.176-45.439-45.439-45.439h-727.084c-27.269 0-45.444 18.176-45.444 45.439v727.084c0 27.269 18.176 45.444 45.444 45.444h727.084c27.263 0 45.439-18.176 45.439-45.444v-727.084zM917.141 18.436000000000035z"  horiz-adv-x="1024" />

    
    <glyph glyph-name="money" unicode="&#58930;" d="M958.057333 831.387615l-164.85323 0-185.357328-249.481452c-49.432885-67.61016-79.667985-112.55149-90.7073-134.823989l-3.15566 0c-32.609691 54.160279-124.625704 182.258429-276.066827 384.305441l-174.316014 0 324.180206-406.776805L121.968801 424.61081l0-89.881061 311.559762 0 0-123.878011L121.968801 210.85173899999995l0-91.034279 311.559762 0 0-180.341928 154.594585 0L588.123149 119.81726000000003l300.518249 0 0 91.034279L588.125547 210.851539l0 123.878011 300.518249 0 0 89.881061L630.721467 424.61061 958.057333 831.387615z"  horiz-adv-x="1024" />

    
    <glyph glyph-name="tab" unicode="&#59413;" d="M768 704l0-128c0-35.328 28.608-64 64-64l128 0 0-448L128 64 128 704 768 704M832 768 64 768l0-768 960 0L1024 576l-192 0L832 768 832 768zM1024 768l-128 0 0-128 128 0L1024 768zM192 384l64 0 0-256 64 0L320 384l64 0L384 448 192 448 192 384zM448 384l128 0 0-64L448 320l0-64 0-64 0-64 64 0 128 0 0 64 0 64L640 320 640 384 640 448 448 448 448 384zM576 192 512 192l0 64 64 0L576 192zM768 320 768 448l-64 0 0-320 64 0 64 0 64 0 0 64 0 64L896 320 768 320zM832 192l-64 0 0 64 64 0L832 192z"  horiz-adv-x="1024" />

    
    <glyph glyph-name="int" unicode="&#58976;" d="M243.2 192C239.542857 218.17456600000003 238.323809 241.157107 238.323809 274.992518L238.323809 598.024938C238.323809 636.3291770000001 239.542857 665.695761 243.2 703.361596 221.257143 700.80798 212.114285 700.169576 181.028572 700.169576L124.952381 700.169576C96.304762 700.169576 82.895238 700.80798 64 704L64 622.922693C86.552381 625.476309 104.228572 626.753117 126.780952 626.753117L156.038095 626.753117 156.038095 274.992518C156.038095 241.79551400000003 154.819048 216.89775399999996 151.161905 192L243.2 192ZM496.693955 195.75550099999998C528.498724 195.75550099999998 548.376705 194.50366699999995 571.733333 192L571.733333 274.621027C555.333999 271.491443 530.486522 269.613692 499.178702 269.613692L360.032834 269.613692C367.487077 293.39853300000004 373.450472 305.91687 388.358957 325.94621099999995 400.782696 342.845966 425.630172 369.13447399999995 447.495951 388.537898 512.09939 444.244499 517.068885 449.251834 530.983472 465.525672 555.333999 494.317848 566.266888 524.361858 566.266888 565.672372 566.266888 651.4229829999999 512.596339 704 425.630172 704 375.935219 704 336.676206 684.596577 311.82873 648.293398 293.441597 621.378973 284.496506 595.716381 277.539212 548.1467L348.602995 537.506113C352.081642 566.2982890000001 355.560289 580.06846 364.00843 595.090465 376.432168 619.501222 398.297948 632.01956 427.121021 632.01956 469.361731 632.01956 495.700056 605.731052 495.700056 563.1687039999999 495.700056 531.246944 481.785469 510.591687 436.066112 471.158924 386.371159 429.222494 371.462673 414.826406 354.06944 395.422983 321.76772 358.493887 299.404992 318.435208 285.987354 272.74327600000004 279.527011 250.21027200000003 276.048364 228.303181 273.066667 192.62591999999995 290.4599 195.12958700000001 298.411092 195.75550099999998 337.173156 195.75550099999998L496.693955 195.75550099999998ZM601.6 319.38461600000005C612.072727 283.692308 619.636364 267.692308 634.181818 250.46153600000002 667.345453 210.46153600000002 713.890912 192 781.963635 192 844.218182 192 893.090912 209.230771 925.090912 241.84615699999995 946.618182 264.61538399999995 960 298.461539 960 331.692308 960 368 951.27273 393.846154 932.07273 416.615384 911.709088 440.615384 890.181818 451.076923 848.87273 457.846154 879.709088 466.461539 892.509088 471.384616 905.309088 481.846154 930.32727 501.538461 945.454547 535.384616 945.454547 572.307692 945.454547 652.307692 882.618182 704 785.454547 704 738.909088 704 701.090912 692.923077 671.418182 670.1538459999999 644.07273 649.230769 630.690909 627.692308 616.145455 582.1538459999999L699.345453 567.384616C706.32727 592.615384 712.145453 603.0769230000001 723.781818 614.769231 737.745453 627.0769230000001 758.690912 633.8461540000001 787.2 633.8461540000001 836.654547 633.8461540000001 864 609.8461540000001 864 567.384616 864 520 829.67273 491.692308 771.490912 491.692308 746.47273 491.692308 733.67273 492.307692 715.054547 494.769231L715.054547 418.461539C734.836365 420.923077 751.709088 421.538461 777.309088 421.538461 802.909088 421.538461 830.254547 415.384616 844.218182 406.769231 865.163635 393.846154 876.8 370.461539 876.8 342.15384600000004 876.8 293.538461 840.145453 262.15384600000004 782.545453 262.15384600000004 754.618182 262.15384600000004 731.345453 270.15384600000004 712.145453 286.15384600000004 697.6 298.461539 692.363635 308.307692 684.8 336.61538399999995L601.6 319.38461600000005ZM64 128L960 128 960 64 64 64 64 128Z"  horiz-adv-x="1024" />

    
    <glyph glyph-name="text" unicode="&#59361;" d="M64.713884 245.59578999999997l892.684232 0 0-55.053873-892.684232 0 0 55.053873ZM511.057535 658.512121l446.340581 0 0-55.056943-446.340581 0 0 55.056943ZM189.225689 411.632337l188.95349 0 46.288233-114.748441 64.741513 0L316.369438 716.095607l-62.694901 0L80.833003 296.88389700000005l64.74356 0L189.225689 411.632337zM275.649014 633.28046c2.731204 6.856152 5.172813 16.597003 7.319709 29.229718l1.467421 0c2.535753-13.895475 4.880147-23.636327 7.030114-29.229718l68.549236-174.288488L207.68204 458.991971 275.649014 633.28046zM511.057535 520.871297l446.340581 0 0-55.053873-446.340581 0 0 55.053873ZM64.713884 107.95906000000002l892.684232 0 0-55.054897-892.684232 0 0 55.054897ZM511.057535 383.23354400000005l446.340581 0 0-55.054897-446.340581 0 0 55.054897Z"  horiz-adv-x="1024" />

    
    <glyph glyph-name="html" unicode="&#59364;" d="M925.597853 59.09618899999998c0.367367 2.783393 0.847298 5.528923 0.847298 8.40953L926.44515 715.908342c19.034519 11.079336 31.976272 31.470759 31.976272 55.082526 0 35.32146-28.633131 63.956637-63.953567 63.956637-23.611767 0-44.007283-12.941753-55.082526-31.980365L182.108594 802.96714c-11.076266 19.038612-31.470759 31.980365-55.082526 31.980365-35.31839 0-63.953567-28.635177-63.953567-63.956637 0-23.611767 12.9438-44.00319 31.976272-55.082526l0-648.402623c0-2.880607 0.479931-5.627161 0.851391-8.40953-19.4991-10.954493-32.827663-31.586392-32.827663-55.543014 0-35.317367 28.635177-63.953567 63.953567-63.953567 35.32146 0 63.953567 28.635177 63.953567 63.953567l639.536698 0c0-35.317367 28.631084-63.953567 63.953567-63.953567 35.319413 0 63.953567 28.635177 63.953567 63.953567C958.421422 27.50979600000005 945.093882 48.14067299999999 925.597853 59.09618899999998zM862.491583 67.505719L159.00234 67.505719 159.00234 715.908342c9.596566 5.586229 17.524119 13.513782 23.110347 23.110347l657.273664 0c5.582135-9.596566 13.509688-17.524119 23.106254-23.110347L862.492606 67.505719zM670.62781 643.084757L350.86202 643.084757 318.885747 643.084757 286.908452 643.084757 286.908452 515.1817149999999 350.86202 515.1817149999999 350.86202 579.135282 478.768131 579.135282 478.768131 227.38912600000003 414.815587 227.38912600000003 414.815587 163.435559 606.675266 163.435559 606.675266 227.38912600000003 542.721699 227.38912600000003 542.721699 579.135282 670.62781 579.135282 670.62781 515.1817149999999 734.585471 515.1817149999999 734.585471 643.084757 702.609199 643.084757Z"  horiz-adv-x="1024" />

    
    <glyph glyph-name="char" unicode="&#58953;" d="M692.2597343921661 13.21142578125H331.711297750473v30.689996480941772a563.3140236139297 563.3140236139297 0 0 0 48.088091611862176 14.83154296875c16.200274229049683 4.278552532196046 33.656305074691765 7.757592201232912 52.39561200141907 10.638445615768433v630.340576171875h-136.73552870750427l-57.244107127189636-151.53810381889343H211.2339789867401c-2.1675199270248413 14.118209481239319-3.9642512798309326 30.233752727508545-5.419161915779114 48.23148250579833-1.4541864395141602 17.939794063568115-2.6809751987457275 36.30831241607666-3.7933409214019784 55.10410666465761-1.1123657226562498 18.59736442565918-1.9683659076690674 37.078857421875-2.6527315378189087 55.019375681877136C198.6264432668686 724.469366312027 198.2563788890838 740.6413968801498 198.2563788890838 754.78857421875h627.4886906147003c0-14.147177338600159-0.3997564315795899-30.090361833572388-1.1123657226562498-47.689059376716614-0.7415771484374999-17.655909061431885-1.6547888517379765-35.852792859077454-2.766430377960205-54.56313192844391s-2.139276266098023-37.078857421875-3.251641988754273-55.10410666465761c-1.0841220617294314-17.998453974723816-2.7099430561065674-34.48406159877777-4.9064308404922485-49.28736090660096h-28.408053517341607l-56.75889551639557 151.53810381889343H592.8891206979752V69.31492352485657c18.71033906936645-3.5659432411193848 36.22285723686218-7.07395076751709 52.366644144058235-10.638445615768433 16.229242086410522-3.508731722831726 31.85957372188568-8.415162563323973 47.00469374656678-14.83154296875v-30.633509159088135z"  horiz-adv-x="1024" />

    
    <glyph glyph-name="image" unicode="&#58980;" d="M904 664H766.9l-32.6 72.7c-7.3 23.4-29 39.3-53.5 39.3H343.2c-24.5 0-46.1-15.9-53.5-39.3L257.1 664H120c-30.9 0-56-25.1-56-56v-560c0-30.9 25.1-56 56-56h784c30.9 0 56 25.1 56 56V608c0 30.9-25.1 56-56 56z m-563.2 49.8l1.4 3 1 3.2h337.7l1-3.2 1.4-3 22.3-49.8h-387l22.2 49.8zM904 48H120V608h784v-560zM512 524c-108.2 0-196-87.8-196-196s87.8-196 196-196 196 87.8 196 196-87.8 196-196 196z m0-336c-77.2 0-140 62.8-140 140s62.8 140 140 140 140-62.8 140-140-62.8-140-140-140zM764 524m-28 0a28 28 0 1 1 56 0 28 28 0 1 1-56 0Z"  horiz-adv-x="1024" />

    
    <glyph glyph-name="datetime" unicode="&#58894;" d="M512.384-57.860000000000014c-246.953 0-447.139 200.2-447.139 447.14 0 246.943 200.186 447.138 447.139 447.138 246.944 0 447.138-200.195 447.138-447.139 0-246.94-200.194-447.139-447.138-447.139z m0 843.607c-218.962 0-396.468-177.502-396.468-396.468 0-218.962 177.506-396.467 396.468-396.467S908.85 170.317 908.85 389.279 731.346 785.747 512.384 785.747z m229.041-508.58c-6.158-13.193-21.88-18.86-35.073-12.678l-210.116 70.244c-10.05 4.693-15.645 14.9-15.08 25.334-0.127 1.056-0.612 1.933-0.612 3.02V653.342c0 14.586 11.8 26.39 26.386 26.39 14.585 0 26.385-11.804 26.385-26.39v-275.727l195.409-65.35c13.217-6.184 18.885-21.88 12.701-35.098z"  horiz-adv-x="1024" />

    
    <glyph glyph-name="one2many" unicode="&#58880;" d="M56.889 839.111V-71.11000000000001H967.11V839.11H56.89z m56.889-227.555h227.555v-170.667H113.778V611.556z m512-170.667H398.222V611.556h227.556v-170.667z m0-56.889v-170.667H398.222V384h227.556z m-512 0h227.555v-170.667H113.778V384z m0-398.222V156.44399999999996h227.555v-170.666H113.778z m284.444 0V156.44399999999996h227.556v-170.666H398.222z m512 0H682.667V156.44399999999996h227.555v-170.666z m0 227.555H682.667V384h227.555v-170.667z m0 227.556H682.667V611.556h227.555v-170.667zM113.778 668.444V782.222h796.444v-113.778H113.778z"  horiz-adv-x="1024" />

    
    <glyph glyph-name="date" unicode="&#58881;" d="M739.328 725.504v56.832h-56.832v-56.832H341.504v56.832h-56.832v-56.832H56.832v-739.328h910.336V725.504h-227.84z m171.008-688.64H113.664V440.832h796.672v-403.968z m0 460.8H113.664v176.64H284.16v-62.464h56.832v62.464h341.504v-62.464h56.832v62.464h170.496v-176.64zM682.496 213.50400000000002H796.16V99.84000000000003H682.496zM455.168 384h113.664v-113.664H455.168z m227.328 0H796.16v-113.664H682.496zM227.328 213.50400000000002h113.664V99.84000000000003H227.328z m227.84 0h113.664V99.84000000000003H455.168zM227.328 384h113.664v-113.664H227.328z"  horiz-adv-x="1024" />

    
    <glyph glyph-name="selection" unicode="&#60308;" d="M960 768H64a32 32 0 0 1-32-32v-416a32 32 0 0 1 32-32h896a32 32 0 0 1 32 32V736a32 32 0 0 1-32 32z m-32-416H96V704h832v-352zM896 248.736a32 32 0 0 1-32-32V64H160v152.736a32 32 0 1 1-64 0V32a32 32 0 0 1 32-32h768a32 32 0 0 1 32 32v184.736a32 32 0 0 1-32 32zM685.92 425.632a31.904 31.904 0 0 1 45.728 0l123.232 126.016a31.968 31.968 0 1 1-45.76 44.736l-100.352-102.624-100.384 102.624a32 32 0 0 1-45.76-44.736l123.296-126.016z"  horiz-adv-x="1024" />

    
    <glyph glyph-name="group1" unicode="&#58943;" d="M1052.91381327 672.38743492h-165.52399247V95.57945916000006h165.5306138c11.42161264 0 21.14819137 4.03894707 29.26581204 12.07049191 8.07789413 8.07789413 12.13008315 17.75812433 12.13008387 29.1333884V631.18355461c0 11.36864273-4.05218974 21.08197883-12.12346254 29.13338767-8.12424271 8.05803016-17.85082147 12.09697724-29.27243337 12.09697724v-0.02648459z m-248.29592034 0.0264846h-248.29592034v-576.80135445h248.29592034V672.4205408400001zM473.55666605 95.61256507999997V672.4205408400001h-165.5306138c-11.42161264 0-21.14819137-4.03894707-29.26581206-12.10359856-8.06465149-8.0447875-12.13008315-17.75812433-12.13008315-29.13338767v-494.38697248c0-11.37526406 4.06543166-21.05549423 12.12346183-29.1333884 8.12424271-8.03154558 17.85082147-12.07049265 29.27243338-12.07049192h165.5306138v0.02648459zM308.01943164 754.78857422h744.90100296c34.23835189 0 63.51078599-12.07049265 87.76433096-36.21809854C1164.93831125 694.42949111 1177.06177308 665.29610344 1177.06177308 631.18355461v-494.39359381c0-34.08606424-12.12346182-63.24593648-36.37700752-87.37367914-24.25354569-24.13436323-53.52597908-36.20485588-87.76433096-36.20485588H308.01943164c-34.23835189 0-63.52402793 12.07049265-87.76433167 36.20485588C196.00155426 73.54402357000004 183.87809244 102.70389655999998 183.87809244 136.78996080000002V631.18355461C183.87809244 665.29610344 196.00155426 694.42949111 220.25509997 718.57047567 244.48878167 742.71808157 273.78107903 754.78857422 308.02605225 754.78857422z"  horiz-adv-x="1371" />

    
    <glyph glyph-name="related" unicode="&#58938;" d="M569.1392 269.92639999999994a166.2464 166.2464 0 0 0-117.4016 49.0496 22.8352 22.8352 0 1 0 32.256 32.256 121.4976 121.4976 0 0 1 170.3424 0l163.84 163.84a120.4224 120.4224 0 0 1-170.3424 170.3424l-138.24-138.24a22.8352 22.8352 0 1 0-32.256 32.256l138.24 138.24a165.12 165.12 0 0 0 233.5232-233.5232l-163.84-163.84a159.5392 159.5392 0 0 0-116.1216-50.3808zM299.4688 0a165.7856 165.7856 0 0 0-117.4016 282.5728l163.84 163.84a165.12 165.12 0 0 0 233.5232 0 22.8352 22.8352 0 1 0-32.256-32.256 121.4976 121.4976 0 0 1-170.3424 0l-163.84-163.84a120.4224 120.4224 0 0 1 170.3424-170.3424l138.24 138.24a22.8352 22.8352 0 0 0 32.256-32.256l-138.24-138.24A169.7792 169.7792 0 0 0 299.4688 0zM299.4688-12.646399999999971a173.5168 173.5168 0 0 0-126.464 52.8896 178.7392 178.7392 0 0 0-52.8896 126.464 173.5168 173.5168 0 0 0 52.8896 126.464l163.84 163.84a178.7392 178.7392 0 0 0 126.464 52.8896 173.568 173.568 0 0 0 126.464-52.8896 35.84 35.84 0 0 0 10.24-25.6 40.96 40.96 0 0 0-10.24-25.6 35.072 35.072 0 0 0-50.3296 0 109.056 109.056 0 0 1-152.2688 0l-163.84-163.84a106.2912 106.2912 0 0 1-30.72-76.1344 111.9232 111.9232 0 0 1 30.72-76.1344 106.2912 106.2912 0 0 1 76.1344-30.72 111.9232 111.9232 0 0 1 76.1344 30.72l138.24 138.24a35.584 35.584 0 0 0 50.3296-50.3296l-138.24-138.24a179.7632 179.7632 0 0 0-126.464-52.0192zM462.0288 481.28a145.2032 145.2032 0 0 1-107.1104-45.1584l-163.84-163.84a152.576 152.576 0 0 1-45.1584-107.1104 145.2544 145.2544 0 0 1 45.1584-107.1104 152.576 152.576 0 0 1 107.1104-45.1584 145.2032 145.2032 0 0 1 107.1104 45.1584l138.24 138.24a9.1136 9.1136 0 0 1-12.9024 12.9024l-138.24-138.24a133.12 133.12 0 0 0-188.416 188.6208l163.84 163.84a135.5264 135.5264 0 0 0 189.44 0 8.6016 8.6016 0 0 1 12.9024 0 9.3696 9.3696 0 0 1 0 12.9024A148.0704 148.0704 0 0 1 462.0288 481.28z m107.1104-224.512a173.5168 173.5168 0 0 0-126.464 52.8896 35.584 35.584 0 0 0 50.3296 50.3296 109.056 109.056 0 0 1 152.2688 0l163.84 163.84a106.2912 106.2912 0 0 1 30.72 76.1344 111.9232 111.9232 0 0 1-30.72 76.1344 106.2912 106.2912 0 0 1-76.1344 30.72 111.9232 111.9232 0 0 1-76.1344-30.72l-138.24-138.24A35.584 35.584 0 0 0 468.48 588.8l138.24 138.24a178.7392 178.7392 0 0 0 126.464 52.8896A173.568 173.568 0 0 0 859.648 727.04a179.2 179.2 0 0 0 0-252.8768l-163.84-163.84a178.7392 178.7392 0 0 0-126.464-52.8896z m-101.9392 86.6816a9.8816 9.8816 0 0 1-6.4512-2.56 8.6016 8.6016 0 0 1 0-12.9024 152.576 152.576 0 0 1 107.1104-45.1584 145.2032 145.2032 0 0 1 107.1104 45.1584l163.84 163.84A152.8832 152.8832 0 0 1 731.6992 752.64 145.2032 145.2032 0 0 1 624.64 707.328l-138.24-138.24a9.1136 9.1136 0 1 1 12.9024-12.9024l138.24 138.24a133.12 133.12 0 0 0 188.3648-188.3648l-163.84-163.84a135.5264 135.5264 0 0 0-189.44 0c0 1.28-2.56 1.28-5.12 1.28z"  horiz-adv-x="1024" />

    
    <glyph glyph-name="many2one" unicode="&#59594;" d="M970.105263 491.789474H53.894737v323.368421h916.210526v-323.368421z m-862.315789 53.894737h808.421052v215.578947H107.789474v-215.578947zM970.105263-47.15789500000005H53.894737v592.842106h916.210526v-592.842106z m-862.315789 53.894737h808.421052v485.052632H107.789474v-485.052632zM754.526316 588.8L662.905263 680.421053l37.726316 37.726315 53.894737-53.894736 53.894737 53.894736 37.726315-37.726315zM264.084211 114.52631599999995h485.052631v53.894737h-485.052631v-53.894737z m0 107.789473h485.052631v53.894737h-485.052631v-53.894737z m0 161.684211v-53.894737h485.052631v53.894737h-485.052631z"  horiz-adv-x="1024" />

    
    <glyph glyph-name="many2many" unicode="&#58908;" d="M340.267533 827.59815m49.970214 0l677.328501 0q49.970214 0 49.970214-49.970214l0 0.136531q0-49.970214-49.970214-49.970214l-677.328501 0q-49.970214 0-49.970214 49.970214l0-0.136531q0 49.970214 49.970214 49.970214ZM340.267533 421.146437m49.970214 0l677.328501 0q49.970214 0 49.970214-49.970214l0 0.136531q0-49.970214-49.970214-49.970214l-677.328501 0q-49.970214 0-49.970214 49.970214l0-0.136531q0 49.970214 49.970214 49.970214ZM340.267533 14.558193999999958m49.970214 0l677.328501 0q49.970214 0 49.970214-49.970214l0 0.136531q0-49.970214-49.970214-49.970214l-677.328501 0q-49.970214 0-49.970214 49.970214l0-0.136531q0 49.970214 49.970214 49.970214ZM301.21977 885.35061A36.044089 36.044089 0 0 1 275.688541 896a35.907558 35.907558 0 0 1-25.53123-10.64939L123.047286 757.967524 61.745029 819.815903a36.044089 36.044089 0 0 1-25.531229 10.64939A36.180619 36.180619 0 0 1 10.68257 768.753444l87.106548-87.516139A35.771027 35.771027 0 0 1 123.047286 670.7244450000001a35.224905 35.224905 0 0 1 25.394699 10.64939L301.21977 834.424682a36.31715 36.31715 0 0 1 0 50.925928zM301.21977 472.755019a35.907558 35.907558 0 0 1-25.531229 10.512859 35.771027 35.771027 0 0 1-25.53123-10.512859L123.047286 345.508463l-61.302257 61.84838A36.044089 36.044089 0 0 1 36.2138 418.142763a36.180619 36.180619 0 0 1-25.53123-61.848379l87.106548-87.37961a35.771027 35.771027 0 0 1 50.925928 0l152.504724 153.050847a36.453681 36.453681 0 0 1 0 50.789398zM301.21977 86.64637100000004a36.044089 36.044089 0 0 1-25.531229 10.64939 35.907558 35.907558 0 0 1-25.53123-10.64939L123.047286-40.736715000000004l-61.302257 61.848379a35.907558 35.907558 0 0 1-25.531229 10.51286 35.771027 35.771027 0 0 1-25.53123-10.51286 36.180619 36.180619 0 0 1 0-51.062459l87.106548-87.516139a36.044089 36.044089 0 0 1 50.925928 0L301.21977 35.85697300000004a36.453681 36.453681 0 0 1 0 50.789398z"  horiz-adv-x="1117" />

    
    <glyph glyph-name="boolean" unicode="&#59022;" d="M863.8 768.3c17.6 0 32-14.4 32-32v-704c0-17.6-14.4-32-32-32h-704c-17.6 0-32 14.4-32 32v704c0 17.6 14.4 32 32 32h704m0 64h-704c-53 0-96-43-96-96v-704c0-53 43-96 96-96h704c53 0 96 43 96 96v704c0 53-42.9 96-96 96zM435 158.89999999999998c-1.7 0-3.4 0.1-5.1 0.2-17 1.3-32.5 9.2-43.6 22.2L208.8 389c-11.5 13.4-9.9 33.6 3.5 45.1s33.6 9.9 45.1-3.5L434.8 223l332.4 284c13.4 11.5 33.6 9.9 45.1-3.5s9.9-33.6-3.5-45.1l-332.4-284c-11.6-10.2-26.2-15.5-41.4-15.5z"  horiz-adv-x="1024" />

    
    <glyph glyph-name="user" unicode="&#58988;" d="M283.083845 605.200938c0-126.207423 102.313224-228.5186 228.511437-228.5186 126.2064 0 228.514507 102.311177 228.514507 228.5186 0 126.202307-102.308107 228.51553-228.514507 228.51553C385.390929 833.716468 283.083845 731.403245 283.083845 605.200938L283.083845 605.200938zM647.796314 376.145102c-39.302121-25.200962-86.044702-39.814798-136.202055-39.814798-50.154283 0-96.894817 14.613836-136.197962 39.814798-171.106006-56.998155-294.485011-218.435964-294.485011-408.697239 0-11.157107 0.422625-22.218024 1.254573-33.164331l858.852706 0c0.831948 10.946306 1.255597 22.007223 1.255597 33.164331 0 190.261275-123.372865 351.698061-294.483988 408.697239L647.796314 376.145102zM647.796314 376.145102"  horiz-adv-x="1024" />

    
    <glyph glyph-name="menu" unicode="&#58963;" d="M886.186667 567.4666669999999c5.546667 0 9.813333 6.826667 9.813333 14.08V655.786667c0 7.68-4.266667 14.08-9.813333 14.08H137.813333c-5.546667 0-9.813333-6.826667-9.813333-14.08v-74.24c0-7.68 4.266667-14.08 9.813333-14.08zM128 346.88c0-7.68 4.266667-14.08 9.813333-14.08h748.373334c5.546667 0 9.813333 6.826667 9.813333 14.08v74.24c0 7.68-4.266667 14.08-9.813333 14.08H137.813333c-5.546667 0-9.813333-6.826667-9.813333-14.08z m0-234.666667c0-7.68 4.266667-14.08 9.813333-14.08h748.373334c5.546667 0 9.813333 6.826667 9.813333 14.08v74.24c0 7.68-4.266667 14.08-9.813333 14.08H137.813333c-5.546667 0-9.813333-6.826667-9.813333-14.08z"  horiz-adv-x="1024" />

    


  </font>
</defs>
</svg>
